<svg xmlns="http://www.w3.org/2000/svg" width="375" viewBox="0 0 375 375" height="375" version="1.0"><defs><clipPath id="a"><path d="M 98.628906 98.628906 L 276.378906 98.628906 L 276.378906 276.378906 L 98.628906 276.378906 Z M 98.628906 98.628906"/></clipPath></defs><g clip-path="url(#a)"><path fill="#E49F38" d="M 177.628906 148.003906 C 161.285156 148.003906 148.003906 161.285156 148.003906 177.628906 C 148.003906 193.972656 161.285156 207.253906 177.628906 207.253906 C 193.972656 207.253906 207.253906 193.972656 207.253906 177.628906 C 207.253906 161.285156 193.972656 148.003906 177.628906 148.003906 Z M 256.628906 98.628906 L 118.378906 98.628906 C 107.46875 98.628906 98.628906 107.46875 98.628906 118.378906 L 98.628906 256.628906 C 98.628906 267.542969 107.46875 276.378906 118.378906 276.378906 L 256.628906 276.378906 C 267.542969 276.378906 276.378906 267.542969 276.378906 256.628906 L 276.378906 118.378906 C 276.378906 107.46875 267.542969 98.628906 256.628906 98.628906 Z M 242.65625 256.628906 L 204.835938 218.808594 C 197.035156 223.945312 187.703125 227.003906 177.628906 227.003906 C 150.375 227.003906 128.253906 204.886719 128.253906 177.628906 C 128.253906 150.375 150.375 128.253906 177.628906 128.253906 C 204.886719 128.253906 227.003906 150.375 227.003906 177.628906 C 227.003906 187.703125 223.945312 197.035156 218.808594 204.835938 L 256.628906 242.65625 Z M 242.65625 256.628906"/></g></svg>